<svg version="1.1" id="Layer_1" xmlns="http://www.w3.org/2000/svg" xmlns:xlink="http://www.w3.org/1999/xlink" x="0px" y="0px"
	 width="100%" viewBox="0 0 560 448" enable-background="new 0 0 560 448" xml:space="preserve">
<path fill="#000000" opacity="1.000000" stroke="none" 
	d="
M247.468658,449.000000 
	C242.581726,445.602478 236.767410,443.936554 233.994415,438.488708 
	C233.697769,437.905945 232.901108,437.467621 232.826828,436.898285 
	C231.678329,428.093414 223.607407,425.451904 218.207840,420.479462 
	C210.820709,413.676666 205.586334,405.500641 202.377060,396.071381 
	C201.704803,394.096191 200.915756,391.559265 203.073563,389.289978 
	C207.049286,392.604340 210.154556,396.703064 214.327713,399.695862 
	C220.859177,404.379852 227.711731,405.787506 234.806381,401.777771 
	C248.077057,394.277588 261.173431,395.499084 274.274017,401.862122 
	C276.711609,403.046051 278.359436,402.943268 280.520782,401.219147 
	C286.437897,396.499023 293.552094,394.561005 300.919495,394.080017 
	C306.541687,393.712921 310.998077,397.523926 315.370544,400.273010 
	C324.124298,405.776642 332.361816,404.124237 341.333466,400.289185 
	C339.702637,397.837677 337.328766,396.944794 335.209229,395.890076 
	C323.030579,389.829865 314.244537,380.917755 310.773102,367.409241 
	C310.111115,364.833191 308.787292,363.959351 305.995392,364.922974 
	C300.799957,366.716187 296.471893,369.412964 293.301819,374.052429 
	C289.407135,379.752441 281.967102,382.125732 275.324707,380.132263 
	C269.336609,378.335144 263.784790,375.577881 259.502136,371.027039 
	C252.388916,363.468353 242.631714,360.723785 233.876511,356.116455 
	C225.633270,351.778503 218.498245,346.231842 214.988403,337.061157 
	C212.422104,330.355774 213.874451,324.709808 219.513519,320.224121 
	C222.535919,317.819916 225.887451,315.995880 229.251801,314.163727 
	C231.079712,313.168243 233.226334,312.033417 234.503448,314.326813 
	C235.674942,316.430481 234.587326,318.649658 232.415192,319.732330 
	C226.719940,322.570984 224.896606,327.197754 225.273636,333.294464 
	C225.684021,339.930786 229.938522,346.136932 236.123245,348.680054 
	C243.957901,351.901703 252.000137,354.616516 259.441742,358.804718 
	C261.895569,360.185760 263.622040,361.812012 265.022827,364.189545 
	C270.735138,373.885071 281.973053,375.101593 288.967194,366.358521 
	C293.505157,360.685791 300.053223,359.433105 305.982727,356.738464 
	C312.850708,353.617340 319.315674,349.740875 325.050323,344.979156 
	C332.212769,339.031982 332.962128,330.493042 331.288757,322.095032 
	C330.279022,317.027466 333.341522,315.555389 336.303406,313.593353 
	C338.287048,312.279358 339.393890,314.087555 340.257812,315.444855 
	C345.336823,323.424805 344.218597,331.763641 340.784576,339.782684 
	C337.107452,348.369354 331.462646,355.581970 322.573792,359.413361 
	C319.407501,360.778107 318.897369,362.724670 319.542603,365.695953 
	C322.150085,377.703400 330.236481,385.038727 340.914032,389.496399 
	C364.584473,399.378326 387.424347,393.081421 402.988281,373.642822 
	C404.188354,372.143951 405.296814,370.614502 404.341095,368.679657 
	C402.913239,365.789062 403.125427,362.900146 403.982758,359.971039 
	C404.986908,356.540405 404.374054,353.777740 401.912384,350.896027 
	C395.864990,343.816650 397.891205,334.569275 408.302490,330.013428 
	C405.998535,324.767456 404.112793,319.424042 408.874023,314.379639 
	C410.095154,313.085938 409.041260,311.966705 408.164795,310.902496 
	C395.143494,295.091736 378.971161,287.524109 358.144196,290.931915 
	C344.977295,293.086365 334.704010,299.613556 326.158325,309.530365 
	C322.785828,313.443970 320.663483,317.902557 319.588135,322.800720 
	C318.611725,327.248016 315.421661,326.461792 312.567505,326.211365 
	C308.867249,325.886719 310.327148,323.206299 310.815735,321.291351 
	C315.088593,304.544678 325.185852,292.459900 341.189697,286.190948 
	C358.255005,279.506256 375.902649,278.752228 393.120544,285.714844 
	C404.522522,290.325653 414.789032,296.811371 419.062225,309.494354 
	C419.549133,310.939636 420.185211,312.269440 421.379883,313.269257 
	C428.112732,318.903809 428.707977,321.720184 424.771545,329.288116 
	C424.545807,329.722168 424.346466,330.169891 424.146423,330.587097 
	C434.831818,343.474426 434.818268,349.135254 424.099701,356.378174 
	C423.646545,357.988525 425.019043,359.133423 425.221893,360.610809 
	C426.094421,366.965179 423.400818,371.984497 417.302277,372.532684 
	C410.406982,373.152496 408.836975,378.937256 405.506836,382.842010 
	C395.286438,394.825867 382.523193,401.589417 366.930298,403.160645 
	C363.815643,403.474457 361.212219,401.558472 358.261261,401.025696 
	C352.462006,399.978668 350.816742,400.975220 348.127838,406.195435 
	C343.269318,415.627808 338.325134,424.919037 329.817719,431.970245 
	C325.453857,435.587189 322.885376,441.152283 317.790985,444.406799 
	C315.397095,445.936005 312.752991,446.893616 310.220062,448.743530 
	C289.312439,449.000000 268.624878,449.000000 247.468658,449.000000 
M252.288818,423.245941 
	C248.708481,423.245941 245.128143,423.245941 241.547806,423.245941 
	C241.328064,423.607086 241.108307,423.968231 240.888565,424.329376 
	C246.950256,427.191132 249.230316,433.131226 253.065659,437.803345 
	C256.224396,441.651306 259.951508,444.517059 265.566498,442.972015 
	C274.711212,440.455688 283.895630,439.918274 293.081268,442.977509 
	C294.130157,443.326813 295.378998,443.065704 296.534454,443.106628 
	C309.945312,443.581146 314.541748,433.424377 320.508514,423.277954 
	C306.460419,422.693787 294.025635,425.352325 282.747345,432.279694 
	C279.245819,434.430450 277.167999,434.379303 274.064606,431.747925 
	C268.122955,426.710022 261.189026,423.557251 252.288818,423.245941 
M288.688843,416.082642 
	C297.312439,410.967102 306.795929,410.722321 316.493195,411.336609 
	C307.399841,404.674744 297.319916,403.859863 287.908691,408.695282 
	C280.878662,412.307251 275.641541,411.978302 268.878571,408.477539 
	C258.929749,403.327698 248.788971,405.188690 239.267990,410.762695 
	C249.617676,410.576630 259.767578,412.142151 268.397339,417.637329 
	C275.835052,422.373413 281.806519,422.190308 288.688843,416.082642 
M421.951019,347.270264 
	C423.426453,343.296539 423.427246,339.688934 418.979736,337.640533 
	C415.686401,336.123596 410.201996,337.777313 408.741669,340.481598 
	C407.073181,343.571350 408.892792,348.566925 412.616302,350.650391 
	C416.452209,352.796692 419.590912,352.102783 421.951019,347.270264 
z"/>
<path fill="#000000" opacity="1.000000" stroke="none" 
	d="
M282.571533,1.000000 
	C285.939697,8.186233 287.389465,15.884285 290.901398,22.904011 
	C293.538361,28.174765 296.887634,32.828014 300.702026,37.244514 
	C317.906738,57.165199 317.587646,76.634079 304.162567,96.569885 
	C298.803223,104.528290 292.228088,111.591972 284.478607,117.481667 
	C282.088043,119.298500 280.261169,119.309784 277.730438,118.002846 
	C268.161530,113.061195 260.943695,105.622337 254.983368,96.871933 
	C251.738403,92.107994 248.674088,87.350540 247.372284,81.420067 
	C244.562469,68.619530 246.439560,56.827393 253.435883,45.871685 
	C256.739716,40.698124 260.322876,35.690834 263.984680,30.760632 
	C270.465729,22.034584 273.150726,11.672490 276.911163,1.364076 
	C278.714355,1.000000 280.428711,1.000000 282.571533,1.000000 
z"/>
<path fill="#000000" opacity="1.000000" stroke="none" 
	d="
M141.680603,265.528412 
	C113.809814,252.351746 93.957611,231.544769 80.002441,204.804489 
	C73.600952,192.538239 69.952652,179.173401 64.987701,166.334976 
	C56.712444,144.936737 48.731487,123.424744 40.591866,101.973839 
	C39.878838,100.094742 39.364960,98.262863 39.787785,95.653687 
	C44.268040,96.736633 46.473286,100.414345 49.396160,102.763130 
	C62.473579,113.271980 76.088585,122.895592 90.355949,131.779999 
	C110.676453,144.433746 132.505508,153.417480 155.023026,161.014847 
	C171.173203,166.463882 186.765747,173.378677 200.354263,183.539444 
	C220.065247,198.278305 236.533264,216.019714 242.539825,240.958847 
	C244.329346,248.388901 246.289215,256.005798 243.982971,263.871490 
	C242.426437,269.180176 238.499878,271.725891 233.786575,273.163177 
	C224.211975,276.082886 214.391739,276.716827 204.348648,276.909637 
	C194.068130,277.107025 183.946060,276.791809 173.769211,275.485504 
	C162.585617,274.049866 152.403275,269.612610 141.680603,265.528412 
M143.574249,176.931931 
	C121.520660,166.602295 98.724792,157.808136 77.869980,144.384781 
	C77.592407,145.583008 77.287407,146.110077 77.406540,146.511185 
	C78.303276,149.530258 79.243996,152.537766 80.243744,155.524521 
	C89.611511,183.510757 103.371872,208.991028 124.065170,230.270111 
	C143.304260,250.053787 166.011780,262.250153 194.589890,260.838562 
	C199.219742,260.609924 203.891449,261.352356 208.548386,261.515442 
	C213.855392,261.701263 219.183609,262.317200 224.446838,260.963837 
	C229.806320,259.585693 230.641708,258.319702 229.342117,252.806030 
	C223.180664,226.665787 208.295212,207.065765 184.601166,194.510330 
	C171.666794,187.656433 157.196640,184.209579 143.574249,176.931931 
z"/>
<path fill="#000000" opacity="1.000000" stroke="none" 
	d="
M486.634827,77.623962 
	C498.920593,73.167053 510.524750,68.155823 521.411926,61.305218 
	C520.298950,66.744606 516.972900,70.699974 513.936218,74.565361 
	C500.394257,91.802834 483.614319,105.028946 463.855713,114.695351 
	C448.484100,122.215538 432.331818,126.406876 415.600006,129.659348 
	C386.631836,135.290421 360.927277,148.136032 340.034332,169.287506 
	C323.745697,185.777740 311.393921,205.016006 303.462982,226.920807 
	C295.183014,249.789627 293.813080,273.548370 294.247742,297.582245 
	C294.396667,305.817291 293.285065,314.083588 293.593750,322.303894 
	C293.757324,326.659485 293.539825,331.291565 295.521240,335.487518 
	C296.613953,337.801392 296.888824,340.431335 294.374084,341.638672 
	C291.443268,343.045837 290.929810,339.863922 289.956360,338.170380 
	C285.981293,331.254761 285.029755,323.411804 284.005615,315.762390 
	C282.781647,306.620850 281.788177,297.319946 282.093903,288.134613 
	C282.475525,276.668549 282.422607,265.139923 284.914215,253.730423 
	C286.159241,248.029312 286.332428,242.016724 287.482208,236.171371 
	C290.278809,221.953903 294.988434,208.406204 300.358459,194.990631 
	C311.702850,166.649826 329.234741,142.716980 351.941223,122.616867 
	C363.692871,112.214104 377.482391,104.825066 391.942413,98.654404 
	C407.621460,91.963554 424.111603,89.947090 440.892761,88.527916 
	C452.764984,87.523880 464.352478,84.331772 475.811096,80.964928 
	C479.309814,79.936905 482.787445,78.836990 486.634827,77.623962 
z"/>
<path fill="#000000" opacity="1.000000" stroke="none" 
	d="
M212.208588,131.769516 
	C224.663803,142.219269 234.611511,154.456192 243.399841,167.555313 
	C253.439880,182.520065 260.532104,198.878555 265.472198,216.303818 
	C271.575623,237.832504 273.224365,259.788727 271.989380,281.851440 
	C271.216278,295.663025 271.264771,309.677002 267.656219,323.301300 
	C266.702484,326.902252 266.514465,330.777130 265.516113,334.481232 
	C264.793915,337.160828 263.544922,338.993622 260.799164,338.391602 
	C257.475250,337.662872 259.140381,335.248413 259.514221,333.174255 
	C261.268860,323.439026 261.973663,313.651215 262.359558,303.724518 
	C262.804688,292.274933 262.337738,280.810638 263.177521,269.399445 
	C263.503998,264.962738 262.213165,260.850677 261.477600,256.747375 
	C258.239319,238.683517 252.171524,221.582535 242.219696,205.973618 
	C232.949524,191.433823 221.904907,178.379333 208.627151,167.476593 
	C193.194870,154.804718 176.246231,144.405975 157.370697,137.524780 
	C139.770538,131.108551 122.101753,124.760590 105.274483,116.571487 
	C89.135513,108.717346 74.016724,98.980370 59.978176,87.655518 
	C51.672253,80.955147 44.501842,73.139618 37.155270,65.478706 
	C36.217999,64.501335 35.435520,63.533173 35.196266,61.389839 
	C40.559055,61.640278 44.252617,65.061775 48.431435,66.864120 
	C58.786488,71.330307 68.891731,76.327904 79.626625,79.943680 
	C96.153046,85.510185 112.847816,90.610413 130.033661,93.388687 
	C148.116684,96.312004 165.078293,102.119263 181.264282,110.350243 
	C192.401978,116.014053 202.498123,123.339935 212.208588,131.769516 
z"/>
<path fill="#000000" opacity="1.000000" stroke="none" 
	d="
M474.615967,192.510025 
	C463.765411,214.680222 448.829773,233.313660 429.996216,248.437119 
	C411.748535,263.090149 391.090912,272.408997 366.930939,272.415009 
	C353.377716,272.418396 340.078033,271.129181 326.905945,268.030365 
	C323.591492,267.250580 320.640930,265.808502 317.805573,264.078186 
	C313.258789,261.303467 311.359894,257.380768 311.935120,251.879654 
	C315.087067,221.735077 330.330811,199.375992 355.685944,183.533493 
	C373.120331,172.640076 391.934845,164.974747 411.665680,159.174164 
	C429.695251,153.873718 446.994141,146.575577 463.894592,138.234787 
	C474.212921,133.142456 484.182770,127.619293 493.649841,121.126427 
	C494.733643,120.383080 495.901123,119.644318 498.642761,120.600922 
	C494.301636,145.565155 486.727417,169.556976 474.615967,192.510025 
M399.845459,250.292221 
	C407.390381,246.979309 414.071655,242.292709 420.351349,237.054123 
	C444.514771,216.896820 460.571198,191.139603 471.638519,162.036560 
	C472.811493,158.952026 475.269440,156.032730 474.258331,151.925797 
	C473.269745,152.352753 472.450684,152.545944 471.821899,153.001663 
	C458.870422,162.388214 443.962738,167.110260 428.688049,170.743973 
	C414.916626,174.020081 401.149506,177.181610 388.248230,183.233414 
	C360.736450,196.138824 338.778107,214.445038 328.514404,244.257797 
	C326.206085,250.962662 326.908691,252.721237 333.913849,254.690125 
	C339.343109,256.216095 344.855896,257.217712 350.505493,257.871094 
	C367.439026,259.829346 383.665009,257.808929 399.845459,250.292221 
z"/>
<path fill="#000000" opacity="1.000000" stroke="none" 
	d="
M294.815094,136.921021 
	C293.572693,137.511292 292.705688,138.068817 291.756927,138.334991 
	C286.967529,139.678665 285.342010,141.843353 288.376068,146.712341 
	C290.689148,150.424286 288.682831,154.213516 286.162720,157.216370 
	C283.194824,160.752838 279.222198,159.265106 275.986694,157.910416 
	C272.453583,156.431107 270.217957,152.936615 270.236664,149.180649 
	C270.256165,145.266342 273.842255,143.170639 277.392761,140.658432 
	C270.912506,138.187958 265.314178,135.268631 260.156128,131.414108 
	C256.857422,128.949051 255.349838,124.439377 250.837204,123.457649 
	C250.610138,123.408241 250.256317,122.840981 250.328720,122.676926 
	C252.023407,118.837387 249.438278,114.340042 252.312225,109.868164 
	C254.773849,114.006416 259.550751,114.792404 261.610016,118.766914 
	C261.821808,119.175697 262.472656,119.785812 262.684723,119.702713 
	C267.522247,117.807106 269.819336,121.947807 273.332428,123.613342 
	C281.041107,127.267967 300.503601,124.214035 306.653900,113.484428 
	C307.386871,112.205727 307.853424,110.514114 309.857086,111.064148 
	C311.936127,111.634857 311.841583,113.431992 311.925995,115.118362 
	C312.294922,122.486984 304.363495,132.735565 294.815094,136.921021 
z"/>
<path fill="#000000" opacity="1.000000" stroke="none" 
	d="
M187.219757,204.833054 
	C193.788010,212.395355 194.721252,220.828659 191.153534,229.320282 
	C187.234543,238.647995 179.208176,242.808960 169.327835,243.265244 
	C156.482758,243.858429 148.368912,237.648849 145.103363,225.030701 
	C142.043732,213.208328 146.802963,202.217056 157.360352,196.870285 
	C164.320816,193.345169 171.226776,194.098557 177.872040,197.654739 
	C181.232346,199.453003 184.315140,201.766632 187.219757,204.833054 
z"/>
<path fill="#000000" opacity="1.000000" stroke="none" 
	d="
M414.419128,211.793274 
	C417.774780,225.290131 410.160858,239.039124 397.911224,242.117859 
	C382.765839,245.924362 368.333130,238.338120 364.549988,224.582214 
	C361.313019,212.812241 369.637177,199.418640 382.454315,195.774063 
	C397.527710,191.487930 410.151581,197.673874 414.419128,211.793274 
z"/>
</svg>